<svg width="24" height="24" viewBox="0 0 24 24" fill="none" xmlns="http://www.w3.org/2000/svg">
<mask id="mask0_34_7" style="mask-type:alpha" maskUnits="userSpaceOnUse" x="0" y="0" width="24" height="24">
<rect width="24" height="24" fill="#D9D9D9"/>
</mask>
<g mask="url(#mask0_34_7)">
<path d="M11.975 23.775C10.1083 23.775 8.39167 23.3833 6.825 22.6C5.25833 21.8167 3.94167 20.7583 2.875 19.425V21.775H0.125V14.625H7.275V17.375H4.8C5.6 18.475 6.62917 19.3542 7.8875 20.0125C9.14583 20.6708 10.5083 21 11.975 21C13.175 21 14.3125 20.7792 15.3875 20.3375C16.4625 19.8958 17.4125 19.2792 18.2375 18.4875C19.0625 17.6958 19.7208 16.7625 20.2125 15.6875C20.7042 14.6125 20.9667 13.45 21 12.2H23.775C23.7417 13.8333 23.4042 15.3542 22.7625 16.7625C22.1208 18.1708 21.2625 19.3958 20.1875 20.4375C19.1125 21.4792 17.8667 22.2958 16.45 22.8875C15.0333 23.4792 13.5417 23.775 11.975 23.775ZM10.9 19V17.85C10.2 17.7 9.57083 17.3542 9.0125 16.8125C8.45417 16.2708 8.075 15.5417 7.875 14.625L9.875 13.825C10.0583 14.575 10.3458 15.1167 10.7375 15.45C11.1292 15.7833 11.6 15.95 12.15 15.95C12.7333 15.95 13.1792 15.8375 13.4875 15.6125C13.7958 15.3875 13.95 15.0333 13.95 14.55C13.95 14.1333 13.775 13.7917 13.425 13.525C13.075 13.2583 12.4833 12.9833 11.65 12.7C10.45 12.2833 9.59167 11.8083 9.075 11.275C8.55833 10.7417 8.3 10.05 8.3 9.20001C8.3 8.51667 8.51667 7.88334 8.95 7.30001C9.38333 6.71667 10.05 6.31667 10.95 6.10001V5.00001H13.1V6.10001C13.7333 6.18334 14.2833 6.44584 14.75 6.88751C15.2167 7.32917 15.5583 7.90834 15.775 8.62501L13.825 9.42501C13.6917 8.99167 13.4625 8.64584 13.1375 8.38751C12.8125 8.12917 12.4 8.00001 11.9 8.00001C11.4667 8.00001 11.1167 8.09584 10.85 8.28751C10.5833 8.47917 10.45 8.74167 10.45 9.07501C10.45 9.45834 10.625 9.77501 10.975 10.025C11.325 10.275 11.9917 10.5667 12.975 10.9C14.225 11.3333 15.0583 11.8625 15.475 12.4875C15.8917 13.1125 16.1 13.8 16.1 14.55C16.1 15.0833 16.0167 15.5458 15.85 15.9375C15.6833 16.3292 15.4583 16.6583 15.175 16.925C14.8917 17.1917 14.5667 17.4 14.2 17.55C13.8333 17.7 13.45 17.8167 13.05 17.9V19H10.9ZM0.225 11.8C0.225 10.2333 0.533333 8.75001 1.15 7.35001C1.76667 5.95001 2.60833 4.72084 3.675 3.66251C4.74167 2.60417 5.99167 1.76667 7.425 1.15001C8.85833 0.533339 10.3833 0.225006 12 0.225006C13.8667 0.225006 15.5917 0.625006 17.175 1.42501C18.7583 2.22501 20.0667 3.27501 21.1 4.57501V2.22501H23.875V9.37501H16.725V6.62501H19.2C18.35 5.47501 17.2792 4.58334 15.9875 3.95001C14.6958 3.31667 13.3667 3.00001 12 3.00001C10.8 3.00001 9.6625 3.22084 8.5875 3.66251C7.5125 4.10417 6.5625 4.72084 5.7375 5.51251C4.9125 6.30417 4.25417 7.23751 3.7625 8.31251C3.27083 9.38751 3.00833 10.55 2.975 11.8H0.225Z" fill="#C9C337"/>
</g>
</svg>
